<svg width="1050" height="1050" viewBox="0 0 1050 1050" xmlns="http://www.w3.org/2000/svg">
  <defs>
    <marker id="arrow" viewBox="0 0 10 10" refX="6" refY="3" markerWidth="8" markerHeight="8" orient="auto-start-reverse">
      <path d="M 0 0 L 10 3 L 0 6 z" fill="#0f172a" />
    </marker>
    <filter id="shadow" x="-5%" y="-5%" width="110%" height="115%" filterUnits="userSpaceOnUse">
      <feDropShadow dx="1" dy="2" stdDeviation="2" flood-color="#000000" flood-opacity="0.08" />
    </filter>
  </defs>
  <rect width="1050" height="1050" fill="#f8fafc" />
  <!-- Title Banner -->
  <rect x="50" y="20" width="950" height="45" rx="6" fill="#0f172a" />
  <text x="525" y="48" font-family="system-ui, -apple-system, sans-serif" font-size="15" font-weight="bold" text-anchor="middle" fill="#ffffff" letter-spacing="0.5">AbangCebu AI: Verified Tenant Review & Rating Flowchart</text>
  <path d="M 520 120 L 520 150 " fill="none" stroke="#334155" stroke-width="1.8" marker-end="url(#arrow)" />
  <path d="M 520 200 L 520 225 " fill="none" stroke="#334155" stroke-width="1.8" marker-end="url(#arrow)" />
  <path d="M 520 290 L 760 235 " fill="none" stroke="#334155" stroke-width="1.8" marker-end="url(#arrow)" />
  <rect x="574" y="220" width="32" height="18" rx="3" fill="#ffffff" stroke="#94a3b8" stroke-width="1" />
  <text x="590" y="233" font-family="system-ui, sans-serif" font-size="10" font-weight="bold" fill="#0f172a" text-anchor="middle">NO</text>
  <path d="M 860 257 L 860 175 L 520 175 " fill="none" stroke="#334155" stroke-width="1.8" marker-end="url(#arrow)" />
  <path d="M 520 290 L 520 315 " fill="none" stroke="#334155" stroke-width="1.8" marker-end="url(#arrow)" />
  <rect x="454" y="260" width="33" height="18" rx="3" fill="#ffffff" stroke="#94a3b8" stroke-width="1" />
  <text x="470" y="273" font-family="system-ui, sans-serif" font-size="10" font-weight="bold" fill="#0f172a" text-anchor="middle">YES</text>
  <path d="M 520 380 L 775 325 " fill="none" stroke="#334155" stroke-width="1.8" marker-end="url(#arrow)" />
  <rect x="574" y="310" width="33" height="18" rx="3" fill="#ffffff" stroke="#94a3b8" stroke-width="1" />
  <text x="590" y="323" font-family="system-ui, sans-serif" font-size="10" font-weight="bold" fill="#0f172a" text-anchor="middle">YES</text>
  <path d="M 775 432 L 625 432 " fill="none" stroke="#334155" stroke-width="1.8" marker-end="url(#arrow)" />
  <path d="M 520 380 L 520 405 " fill="none" stroke="#334155" stroke-width="1.8" marker-end="url(#arrow)" />
  <rect x="441" y="350" width="32" height="18" rx="3" fill="#ffffff" stroke="#94a3b8" stroke-width="1" />
  <text x="457" y="363" font-family="system-ui, sans-serif" font-size="10" font-weight="bold" fill="#0f172a" text-anchor="middle">NO</text>
  <path d="M 520 460 L 520 490 " fill="none" stroke="#334155" stroke-width="1.8" marker-end="url(#arrow)" />
  <path d="M 320 522 L 320 585 " fill="none" stroke="#334155" stroke-width="1.8" marker-end="url(#arrow)" />
  <rect x="304" y="535" width="33" height="18" rx="3" fill="#ffffff" stroke="#94a3b8" stroke-width="1" />
  <text x="320" y="548" font-family="system-ui, sans-serif" font-size="10" font-weight="bold" fill="#0f172a" text-anchor="middle">YES</text>
  <path d="M 710 522 L 710 585 " fill="none" stroke="#334155" stroke-width="1.8" marker-end="url(#arrow)" />
  <rect x="694" y="535" width="32" height="18" rx="3" fill="#ffffff" stroke="#94a3b8" stroke-width="1" />
  <text x="710" y="548" font-family="system-ui, sans-serif" font-size="10" font-weight="bold" fill="#0f172a" text-anchor="middle">NO</text>
  <path d="M 320 702 L 415 702 " fill="none" stroke="#334155" stroke-width="1.8" marker-end="url(#arrow)" />
  <path d="M 710 702 L 625 702 " fill="none" stroke="#334155" stroke-width="1.8" marker-end="url(#arrow)" />
  <path d="M 520 730 L 250 670 " fill="none" stroke="#0284c7" stroke-width="1.8" stroke-dasharray="6,4" marker-end="url(#arrow)" />
  <path d="M 520 730 L 520 760 " fill="none" stroke="#334155" stroke-width="1.8" marker-end="url(#arrow)" />
  <path d="M 520 815 L 520 845 " fill="none" stroke="#334155" stroke-width="1.8" marker-end="url(#arrow)" />
  <path d="M 520 900 L 520 930 " fill="none" stroke="#334155" stroke-width="1.8" marker-end="url(#arrow)" />
  <rect x="450" y="80" width="140" height="40" rx="20" fill="#0f172a" stroke="#0f172a" stroke-width="2" filter="url(#shadow)" />
  <text x="520" y="103" font-family="system-ui, -apple-system, sans-serif" font-size="11" font-weight="bold" fill="#ffffff" text-anchor="middle">START</text>
  <polygon points="427,150 625,150 613,200 415,200" fill="#f1f5f9" stroke="#0284c7" stroke-width="1.8" filter="url(#shadow)" />
  <text x="520" y="172" font-family="system-ui, -apple-system, sans-serif" font-size="11" font-weight="500" fill="#0369a1" text-anchor="middle">User Views Property Listing Page</text>
  <text x="520" y="185" font-family="system-ui, -apple-system, sans-serif" font-size="11" font-weight="500" fill="#0369a1" text-anchor="middle">& Clicks "Write a Review"</text>
  <polygon points="520,225 600,257 520,290 440,257" fill="#ffffff" stroke="#0f172a" stroke-width="2" filter="url(#shadow)" />
  <text x="520" y="261" font-family="system-ui, -apple-system, sans-serif" font-size="11" font-weight="600" fill="#0f172a" text-anchor="middle">User Logged In?</text>
  <rect x="680" y="235" width="160" height="45" rx="6" fill="#ffffff" stroke="#334155" stroke-width="1.8" filter="url(#shadow)" />
  <text x="760" y="261" font-family="system-ui, -apple-system, sans-serif" font-size="11" font-weight="500" fill="#0f172a" text-anchor="middle">Redirect to /login</text>
  <polygon points="520,315 600,347 520,380 440,347" fill="#ffffff" stroke="#0f172a" stroke-width="2" filter="url(#shadow)" />
  <text x="520" y="344" font-family="system-ui, -apple-system, sans-serif" font-size="11" font-weight="600" fill="#0f172a" text-anchor="middle">User Already Reviewed</text>
  <text x="520" y="357" font-family="system-ui, -apple-system, sans-serif" font-size="11" font-weight="600" fill="#0f172a" text-anchor="middle">this Property?</text>
  <polygon points="692,325 870,325 858,370 680,370" fill="#f1f5f9" stroke="#0284c7" stroke-width="1.8" filter="url(#shadow)" />
  <text x="775" y="344" font-family="system-ui, -apple-system, sans-serif" font-size="11" font-weight="500" fill="#0369a1" text-anchor="middle">Prompt: "Edit Existing Review?"</text>
  <text x="775" y="357" font-family="system-ui, -apple-system, sans-serif" font-size="11" font-weight="500" fill="#0369a1" text-anchor="middle">(Enforce UNIQUE Constraint)</text>
  <polygon points="427,405 625,405 613,460 415,460" fill="#f1f5f9" stroke="#0284c7" stroke-width="1.8" filter="url(#shadow)" />
  <text x="520" y="429" font-family="system-ui, -apple-system, sans-serif" font-size="11" font-weight="500" fill="#0369a1" text-anchor="middle">Select Star Rating (1 to 5 Stars)</text>
  <text x="520" y="442" font-family="system-ui, -apple-system, sans-serif" font-size="11" font-weight="500" fill="#0369a1" text-anchor="middle">& Input Qualitative Comments</text>
  <polygon points="520,490 600,522 520,555 440,522" fill="#ffffff" stroke="#0f172a" stroke-width="2" filter="url(#shadow)" />
  <text x="520" y="519" font-family="system-ui, -apple-system, sans-serif" font-size="11" font-weight="600" fill="#0f172a" text-anchor="middle">User has Completed</text>
  <text x="520" y="532" font-family="system-ui, -apple-system, sans-serif" font-size="11" font-weight="600" fill="#0f172a" text-anchor="middle">Viewing / Tenancy History?</text>
  <rect x="230" y="585" width="180" height="50" rx="6" fill="#ffffff" stroke="#334155" stroke-width="1.8" filter="url(#shadow)" />
  <text x="320" y="607" font-family="system-ui, -apple-system, sans-serif" font-size="11" font-weight="500" fill="#0f172a" text-anchor="middle">Flag Review as:</text>
  <text x="320" y="620" font-family="system-ui, -apple-system, sans-serif" font-size="11" font-weight="500" fill="#0f172a" text-anchor="middle">is_verified_tenant = true</text>
  <rect x="620" y="585" width="180" height="50" rx="6" fill="#ffffff" stroke="#334155" stroke-width="1.8" filter="url(#shadow)" />
  <text x="710" y="607" font-family="system-ui, -apple-system, sans-serif" font-size="11" font-weight="500" fill="#0f172a" text-anchor="middle">Flag Review as:</text>
  <text x="710" y="620" font-family="system-ui, -apple-system, sans-serif" font-size="11" font-weight="500" fill="#0f172a" text-anchor="middle">is_verified_tenant = false</text>
  <rect x="415" y="675" width="210" height="55" rx="6" fill="#ffffff" stroke="#334155" stroke-width="1.8" filter="url(#shadow)" />
  <text x="520" y="699" font-family="system-ui, -apple-system, sans-serif" font-size="11" font-weight="500" fill="#0f172a" text-anchor="middle">Insert / Update Row in reviews Table</text>
  <text x="520" y="712" font-family="system-ui, -apple-system, sans-serif" font-size="11" font-weight="500" fill="#0f172a" text-anchor="middle">(rating, comment, is_verified_tenant)</text>
  <g filter="url(#shadow)">
    <rect x="180" y="680" width="140" height="55" fill="#f8fafc" stroke="#475569" stroke-width="1.8" />
    <ellipse cx="250" cy="680" rx="70" ry="10" fill="#e2e8f0" stroke="#475569" stroke-width="1.8" />
    <ellipse cx="250" cy="735" rx="70" ry="10" fill="#f8fafc" stroke="#475569" stroke-width="1.8" />
  </g>
  <text x="250" y="704" font-family="system-ui, -apple-system, sans-serif" font-size="11" font-weight="600" fill="#1e293b" text-anchor="middle">reviews &</text>
  <text x="250" y="717" font-family="system-ui, -apple-system, sans-serif" font-size="11" font-weight="600" fill="#1e293b" text-anchor="middle">properties</text>
  <rect x="415" y="760" width="210" height="55" rx="6" fill="#ffffff" stroke="#334155" stroke-width="1.8" filter="url(#shadow)" />
  <text x="520" y="784" font-family="system-ui, -apple-system, sans-serif" font-size="11" font-weight="500" fill="#0f172a" text-anchor="middle">PostgreSQL Trigger Recalculates Property</text>
  <text x="520" y="797" font-family="system-ui, -apple-system, sans-serif" font-size="11" font-weight="500" fill="#0f172a" text-anchor="middle">Average Rating Score & Total Reviews</text>
  <polygon points="432,845 620,845 608,900 420,900" fill="#f1f5f9" stroke="#0284c7" stroke-width="1.8" filter="url(#shadow)" />
  <text x="520" y="869" font-family="system-ui, -apple-system, sans-serif" font-size="11" font-weight="500" fill="#0369a1" text-anchor="middle">Display Published Review Card</text>
  <text x="520" y="882" font-family="system-ui, -apple-system, sans-serif" font-size="11" font-weight="500" fill="#0369a1" text-anchor="middle">on Property Listing Page</text>
  <rect x="460" y="930" width="120" height="40" rx="20" fill="#0f172a" stroke="#0f172a" stroke-width="2" filter="url(#shadow)" />
  <text x="520" y="953" font-family="system-ui, -apple-system, sans-serif" font-size="11" font-weight="bold" fill="#ffffff" text-anchor="middle">END</text>
</svg>