<svg width="1050" height="1450" viewBox="0 0 1050 1450" xmlns="http://www.w3.org/2000/svg">
  <defs>
    <marker id="arrow" viewBox="0 0 10 10" refX="6" refY="3" markerWidth="8" markerHeight="8" orient="auto-start-reverse">
      <path d="M 0 0 L 10 3 L 0 6 z" fill="#0f172a" />
    </marker>
    <filter id="shadow" x="-5%" y="-5%" width="110%" height="115%" filterUnits="userSpaceOnUse">
      <feDropShadow dx="1" dy="2" stdDeviation="2" flood-color="#000000" flood-opacity="0.08" />
    </filter>
  </defs>
  <rect width="1050" height="1450" fill="#f8fafc" />
  <!-- Title Banner -->
  <rect x="50" y="20" width="950" height="45" rx="6" fill="#0f172a" />
  <text x="525" y="48" font-family="system-ui, -apple-system, sans-serif" font-size="15" font-weight="bold" text-anchor="middle" fill="#ffffff" letter-spacing="0.5">AbangCebu AI: Property & Unit Listing Creation Flowchart</text>
  <path d="M 520 120 L 520 150 " fill="none" stroke="#334155" stroke-width="1.8" marker-end="url(#arrow)" />
  <path d="M 520 200 L 520 230 " fill="none" stroke="#334155" stroke-width="1.8" marker-end="url(#arrow)" />
  <path d="M 520 295 L 770 240 " fill="none" stroke="#334155" stroke-width="1.8" marker-end="url(#arrow)" />
  <rect x="574" y="225" width="32" height="18" rx="3" fill="#ffffff" stroke="#94a3b8" stroke-width="1" />
  <text x="590" y="238" font-family="system-ui, sans-serif" font-size="10" font-weight="bold" fill="#0f172a" text-anchor="middle">NO</text>
  <path d="M 770 285 L 770 310 " fill="none" stroke="#334155" stroke-width="1.8" marker-end="url(#arrow)" />
  <path d="M 880 332 L 880 1355 L 580 1355 " fill="none" stroke="#334155" stroke-width="1.8" marker-end="url(#arrow)" />
  <path d="M 520 295 L 520 380 " fill="none" stroke="#334155" stroke-width="1.8" marker-end="url(#arrow)" />
  <rect x="444" y="295" width="33" height="18" rx="3" fill="#ffffff" stroke="#94a3b8" stroke-width="1" />
  <text x="460" y="308" font-family="system-ui, sans-serif" font-size="10" font-weight="bold" fill="#0f172a" text-anchor="middle">YES</text>
  <path d="M 520 435 L 520 465 " fill="none" stroke="#334155" stroke-width="1.8" marker-end="url(#arrow)" />
  <path d="M 520 515 L 520 545 " fill="none" stroke="#334155" stroke-width="1.8" marker-end="url(#arrow)" />
  <path d="M 520 610 L 770 555 " fill="none" stroke="#334155" stroke-width="1.8" marker-end="url(#arrow)" />
  <rect x="574" y="540" width="32" height="18" rx="3" fill="#ffffff" stroke="#94a3b8" stroke-width="1" />
  <text x="590" y="553" font-family="system-ui, sans-serif" font-size="10" font-weight="bold" fill="#0f172a" text-anchor="middle">NO</text>
  <path d="M 880 577 L 880 490 L 615 490 " fill="none" stroke="#334155" stroke-width="1.8" marker-end="url(#arrow)" />
  <path d="M 520 610 L 520 640 " fill="none" stroke="#334155" stroke-width="1.8" marker-end="url(#arrow)" />
  <rect x="444" y="582" width="33" height="18" rx="3" fill="#ffffff" stroke="#94a3b8" stroke-width="1" />
  <text x="460" y="595" font-family="system-ui, sans-serif" font-size="10" font-weight="bold" fill="#0f172a" text-anchor="middle">YES</text>
  <path d="M 520 695 L 520 725 " fill="none" stroke="#334155" stroke-width="1.8" marker-end="url(#arrow)" />
  <path d="M 520 780 L 520 810 " fill="none" stroke="#334155" stroke-width="1.8" marker-end="url(#arrow)" />
  <path d="M 520 860 L 520 890 " fill="none" stroke="#334155" stroke-width="1.8" marker-end="url(#arrow)" />
  <path d="M 520 955 L 770 900 " fill="none" stroke="#334155" stroke-width="1.8" marker-end="url(#arrow)" />
  <rect x="574" y="885" width="32" height="18" rx="3" fill="#ffffff" stroke="#94a3b8" stroke-width="1" />
  <text x="590" y="898" font-family="system-ui, sans-serif" font-size="10" font-weight="bold" fill="#0f172a" text-anchor="middle">NO</text>
  <path d="M 880 922 L 880 835 L 615 835 " fill="none" stroke="#334155" stroke-width="1.8" marker-end="url(#arrow)" />
  <path d="M 520 955 L 520 985 " fill="none" stroke="#334155" stroke-width="1.8" marker-end="url(#arrow)" />
  <rect x="444" y="927" width="33" height="18" rx="3" fill="#ffffff" stroke="#94a3b8" stroke-width="1" />
  <text x="460" y="940" font-family="system-ui, sans-serif" font-size="10" font-weight="bold" fill="#0f172a" text-anchor="middle">YES</text>
  <path d="M 520 1040 L 520 1075 " fill="none" stroke="#334155" stroke-width="1.8" marker-end="url(#arrow)" />
  <path d="M 520 1145 L 250 1070 " fill="none" stroke="#0284c7" stroke-width="1.8" stroke-dasharray="6,4" marker-end="url(#arrow)" />
  <path d="M 520 1145 L 520 1175 " fill="none" stroke="#334155" stroke-width="1.8" marker-end="url(#arrow)" />
  <path d="M 520 1225 L 520 1255 " fill="none" stroke="#334155" stroke-width="1.8" marker-end="url(#arrow)" />
  <path d="M 520 1305 L 520 1335 " fill="none" stroke="#334155" stroke-width="1.8" marker-end="url(#arrow)" />
  <rect x="450" y="80" width="140" height="40" rx="20" fill="#0f172a" stroke="#0f172a" stroke-width="2" filter="url(#shadow)" />
  <text x="520" y="103" font-family="system-ui, -apple-system, sans-serif" font-size="11" font-weight="bold" fill="#ffffff" text-anchor="middle">START</text>
  <polygon points="442,150 610,150 598,200 430,200" fill="#f1f5f9" stroke="#0284c7" stroke-width="1.8" filter="url(#shadow)" />
  <text x="520" y="172" font-family="system-ui, -apple-system, sans-serif" font-size="11" font-weight="500" fill="#0369a1" text-anchor="middle">Landlord Navigates to</text>
  <text x="520" y="185" font-family="system-ui, -apple-system, sans-serif" font-size="11" font-weight="500" fill="#0369a1" text-anchor="middle">/listings/new</text>
  <polygon points="520,230 600,262 520,295 440,262" fill="#ffffff" stroke="#0f172a" stroke-width="2" filter="url(#shadow)" />
  <text x="520" y="259" font-family="system-ui, -apple-system, sans-serif" font-size="11" font-weight="600" fill="#0f172a" text-anchor="middle">Landlord KYC Status</text>
  <text x="520" y="272" font-family="system-ui, -apple-system, sans-serif" font-size="11" font-weight="600" fill="#0f172a" text-anchor="middle">== "verified"?</text>
  <rect x="680" y="240" width="180" height="45" rx="6" fill="#ffffff" stroke="#334155" stroke-width="1.8" filter="url(#shadow)" />
  <text x="770" y="259" font-family="system-ui, -apple-system, sans-serif" font-size="11" font-weight="500" fill="#0f172a" text-anchor="middle">Block Creation & Prompt:</text>
  <text x="770" y="272" font-family="system-ui, -apple-system, sans-serif" font-size="11" font-weight="500" fill="#0f172a" text-anchor="middle">"KYC Verification Required"</text>
  <rect x="680" y="310" width="180" height="45" rx="6" fill="#ffffff" stroke="#334155" stroke-width="1.8" filter="url(#shadow)" />
  <text x="770" y="329" font-family="system-ui, -apple-system, sans-serif" font-size="11" font-weight="500" fill="#0f172a" text-anchor="middle">Redirect to /landlord/verification</text>
  <text x="770" y="342" font-family="system-ui, -apple-system, sans-serif" font-size="11" font-weight="500" fill="#0f172a" text-anchor="middle">KYC Submission Portal</text>
  <polygon points="432,380 620,380 608,435 420,435" fill="#f1f5f9" stroke="#0284c7" stroke-width="1.8" filter="url(#shadow)" />
  <text x="520" y="404" font-family="system-ui, -apple-system, sans-serif" font-size="11" font-weight="500" fill="#0369a1" text-anchor="middle">Wizard Step 1: Property Info</text>
  <text x="520" y="417" font-family="system-ui, -apple-system, sans-serif" font-size="11" font-weight="500" fill="#0369a1" text-anchor="middle">(Title, Type, Address, Barangay)</text>
  <polygon points="437,465 615,465 603,515 425,515" fill="#f1f5f9" stroke="#0284c7" stroke-width="1.8" filter="url(#shadow)" />
  <text x="520" y="487" font-family="system-ui, -apple-system, sans-serif" font-size="11" font-weight="500" fill="#0369a1" text-anchor="middle">Pin Property Location on Map</text>
  <text x="520" y="500" font-family="system-ui, -apple-system, sans-serif" font-size="11" font-weight="500" fill="#0369a1" text-anchor="middle">(Extract Lat/Lng Coordinates)</text>
  <polygon points="520,545 600,577 520,610 440,577" fill="#ffffff" stroke="#0f172a" stroke-width="2" filter="url(#shadow)" />
  <text x="520" y="574" font-family="system-ui, -apple-system, sans-serif" font-size="11" font-weight="600" fill="#0f172a" text-anchor="middle">Coordinates within</text>
  <text x="520" y="587" font-family="system-ui, -apple-system, sans-serif" font-size="11" font-weight="600" fill="#0f172a" text-anchor="middle">Metro Cebu Bounds?</text>
  <rect x="680" y="555" width="180" height="45" rx="6" fill="#ffffff" stroke="#334155" stroke-width="1.8" filter="url(#shadow)" />
  <text x="770" y="574" font-family="system-ui, -apple-system, sans-serif" font-size="11" font-weight="500" fill="#0f172a" text-anchor="middle">Show Error: "Coordinates must</text>
  <text x="770" y="587" font-family="system-ui, -apple-system, sans-serif" font-size="11" font-weight="500" fill="#0f172a" text-anchor="middle">be within Metro Cebu"</text>
  <polygon points="432,640 620,640 608,695 420,695" fill="#f1f5f9" stroke="#0284c7" stroke-width="1.8" filter="url(#shadow)" />
  <text x="520" y="664" font-family="system-ui, -apple-system, sans-serif" font-size="11" font-weight="500" fill="#0369a1" text-anchor="middle">Wizard Step 2: Add Rental Units</text>
  <text x="520" y="677" font-family="system-ui, -apple-system, sans-serif" font-size="11" font-weight="500" fill="#0369a1" text-anchor="middle">(Rent, Deposit, Type, Rules)</text>
  <polygon points="432,725 620,725 608,780 420,780" fill="#f1f5f9" stroke="#0284c7" stroke-width="1.8" filter="url(#shadow)" />
  <text x="520" y="749" font-family="system-ui, -apple-system, sans-serif" font-size="11" font-weight="500" fill="#0369a1" text-anchor="middle">Wizard Step 3: Select Amenities</text>
  <text x="520" y="762" font-family="system-ui, -apple-system, sans-serif" font-size="11" font-weight="500" fill="#0369a1" text-anchor="middle">(WiFi, Aircon, Submeter, etc.)</text>
  <polygon points="437,810 615,810 603,860 425,860" fill="#f1f5f9" stroke="#0284c7" stroke-width="1.8" filter="url(#shadow)" />
  <text x="520" y="832" font-family="system-ui, -apple-system, sans-serif" font-size="11" font-weight="500" fill="#0369a1" text-anchor="middle">Wizard Step 4: Upload Photos</text>
  <text x="520" y="845" font-family="system-ui, -apple-system, sans-serif" font-size="11" font-weight="500" fill="#0369a1" text-anchor="middle">(Property & Room Images)</text>
  <polygon points="520,890 600,922 520,955 440,922" fill="#ffffff" stroke="#0f172a" stroke-width="2" filter="url(#shadow)" />
  <text x="520" y="919" font-family="system-ui, -apple-system, sans-serif" font-size="11" font-weight="600" fill="#0f172a" text-anchor="middle">At least 1 Photo</text>
  <text x="520" y="932" font-family="system-ui, -apple-system, sans-serif" font-size="11" font-weight="600" fill="#0f172a" text-anchor="middle">Uploaded & Valid?</text>
  <rect x="680" y="900" width="180" height="45" rx="6" fill="#ffffff" stroke="#334155" stroke-width="1.8" filter="url(#shadow)" />
  <text x="770" y="919" font-family="system-ui, -apple-system, sans-serif" font-size="11" font-weight="500" fill="#0f172a" text-anchor="middle">Show Error: "At least 1 photo</text>
  <text x="770" y="932" font-family="system-ui, -apple-system, sans-serif" font-size="11" font-weight="500" fill="#0f172a" text-anchor="middle">required to publish"</text>
  <rect x="420" y="985" width="200" height="55" rx="6" fill="#ffffff" stroke="#334155" stroke-width="1.8" filter="url(#shadow)" />
  <text x="520" y="1009" font-family="system-ui, -apple-system, sans-serif" font-size="11" font-weight="500" fill="#0f172a" text-anchor="middle">Upload Images to Supabase</text>
  <text x="520" y="1022" font-family="system-ui, -apple-system, sans-serif" font-size="11" font-weight="500" fill="#0f172a" text-anchor="middle">Storage "property-photos" Bucket</text>
  <g filter="url(#shadow)">
    <rect x="180" y="1080" width="140" height="60" fill="#f8fafc" stroke="#475569" stroke-width="1.8" />
    <ellipse cx="250" cy="1080" rx="70" ry="10" fill="#e2e8f0" stroke="#475569" stroke-width="1.8" />
    <ellipse cx="250" cy="1140" rx="70" ry="10" fill="#f8fafc" stroke="#475569" stroke-width="1.8" />
  </g>
  <text x="250" y="1100" font-family="system-ui, -apple-system, sans-serif" font-size="11" font-weight="600" fill="#1e293b" text-anchor="middle">properties,</text>
  <text x="250" y="1113" font-family="system-ui, -apple-system, sans-serif" font-size="11" font-weight="600" fill="#1e293b" text-anchor="middle">rental_units,</text>
  <text x="250" y="1126" font-family="system-ui, -apple-system, sans-serif" font-size="11" font-weight="600" fill="#1e293b" text-anchor="middle">property_photos</text>
  <rect x="415" y="1075" width="210" height="70" rx="6" fill="#ffffff" stroke="#334155" stroke-width="1.8" filter="url(#shadow)" />
  <text x="520" y="1100" font-family="system-ui, -apple-system, sans-serif" font-size="11" font-weight="500" fill="#0f172a" text-anchor="middle">Execute Server Action:</text>
  <text x="520" y="1113" font-family="system-ui, -apple-system, sans-serif" font-size="11" font-weight="500" fill="#0f172a" text-anchor="middle">Insert Property (status="pending")</text>
  <text x="520" y="1126" font-family="system-ui, -apple-system, sans-serif" font-size="11" font-weight="500" fill="#0f172a" text-anchor="middle">+ Units + Amenities Mapping</text>
  <rect x="425" y="1175" width="190" height="50" rx="6" fill="#ffffff" stroke="#334155" stroke-width="1.8" filter="url(#shadow)" />
  <text x="520" y="1197" font-family="system-ui, -apple-system, sans-serif" font-size="11" font-weight="500" fill="#0f172a" text-anchor="middle">Trigger Notification & Push</text>
  <text x="520" y="1210" font-family="system-ui, -apple-system, sans-serif" font-size="11" font-weight="500" fill="#0f172a" text-anchor="middle">to Admin Moderation Queue</text>
  <polygon points="437,1255 615,1255 603,1305 425,1305" fill="#f1f5f9" stroke="#0284c7" stroke-width="1.8" filter="url(#shadow)" />
  <text x="520" y="1277" font-family="system-ui, -apple-system, sans-serif" font-size="11" font-weight="500" fill="#0369a1" text-anchor="middle">Display "Listing Submitted</text>
  <text x="520" y="1290" font-family="system-ui, -apple-system, sans-serif" font-size="11" font-weight="500" fill="#0369a1" text-anchor="middle">for Admin Review" Banner</text>
  <rect x="460" y="1335" width="120" height="40" rx="20" fill="#0f172a" stroke="#0f172a" stroke-width="2" filter="url(#shadow)" />
  <text x="520" y="1358" font-family="system-ui, -apple-system, sans-serif" font-size="11" font-weight="bold" fill="#ffffff" text-anchor="middle">END</text>
</svg>