<svg width="1050" height="1400" viewBox="0 0 1050 1400" xmlns="http://www.w3.org/2000/svg">
  <defs>
    <marker id="arrow" viewBox="0 0 10 10" refX="6" refY="3" markerWidth="8" markerHeight="8" orient="auto-start-reverse">
      <path d="M 0 0 L 10 3 L 0 6 z" fill="#0f172a" />
    </marker>
    <filter id="shadow" x="-5%" y="-5%" width="110%" height="115%" filterUnits="userSpaceOnUse">
      <feDropShadow dx="1" dy="2" stdDeviation="2" flood-color="#000000" flood-opacity="0.08" />
    </filter>
  </defs>
  <rect width="1050" height="1400" fill="#f8fafc" />
  <!-- Title Banner -->
  <rect x="50" y="20" width="950" height="45" rx="6" fill="#0f172a" />
  <text x="525" y="48" font-family="system-ui, -apple-system, sans-serif" font-size="15" font-weight="bold" text-anchor="middle" fill="#ffffff" letter-spacing="0.5">AbangCebu AI: Parametric Search & Landmark Radius Flowchart</text>
  <path d="M 520 120 L 520 150 " fill="none" stroke="#334155" stroke-width="1.8" marker-end="url(#arrow)" />
  <path d="M 520 200 L 520 230 " fill="none" stroke="#334155" stroke-width="1.8" marker-end="url(#arrow)" />
  <path d="M 520 280 L 520 310 " fill="none" stroke="#334155" stroke-width="1.8" marker-end="url(#arrow)" />
  <path d="M 520 365 L 520 395 " fill="none" stroke="#334155" stroke-width="1.8" marker-end="url(#arrow)" />
  <path d="M 520 450 L 520 480 " fill="none" stroke="#334155" stroke-width="1.8" marker-end="url(#arrow)" />
  <path d="M 520 535 L 520 565 " fill="none" stroke="#334155" stroke-width="1.8" marker-end="url(#arrow)" />
  <path d="M 325 597 L 325 660 " fill="none" stroke="#334155" stroke-width="1.8" marker-end="url(#arrow)" />
  <rect x="309" y="610" width="33" height="18" rx="3" fill="#ffffff" stroke="#94a3b8" stroke-width="1" />
  <text x="325" y="623" font-family="system-ui, sans-serif" font-size="10" font-weight="bold" fill="#0f172a" text-anchor="middle">YES</text>
  <path d="M 715 597 L 715 660 " fill="none" stroke="#334155" stroke-width="1.8" marker-end="url(#arrow)" />
  <rect x="699" y="610" width="32" height="18" rx="3" fill="#ffffff" stroke="#94a3b8" stroke-width="1" />
  <text x="715" y="623" font-family="system-ui, sans-serif" font-size="10" font-weight="bold" fill="#0f172a" text-anchor="middle">NO</text>
  <path d="M 325 725 L 520 750 " fill="none" stroke="#0284c7" stroke-width="1.8" stroke-dasharray="6,4" marker-end="url(#arrow)" />
  <path d="M 715 725 L 520 750 " fill="none" stroke="#0284c7" stroke-width="1.8" stroke-dasharray="6,4" marker-end="url(#arrow)" />
  <path d="M 520 825 L 520 855 " fill="none" stroke="#334155" stroke-width="1.8" marker-end="url(#arrow)" />
  <path d="M 520 920 L 770 865 " fill="none" stroke="#334155" stroke-width="1.8" marker-end="url(#arrow)" />
  <rect x="574" y="850" width="32" height="18" rx="3" fill="#ffffff" stroke="#94a3b8" stroke-width="1" />
  <text x="590" y="863" font-family="system-ui, sans-serif" font-size="10" font-weight="bold" fill="#0f172a" text-anchor="middle">NO</text>
  <path d="M 880 887 L 880 175 L 610 175 " fill="none" stroke="#334155" stroke-width="1.8" marker-end="url(#arrow)" />
  <path d="M 520 920 L 520 950 " fill="none" stroke="#334155" stroke-width="1.8" marker-end="url(#arrow)" />
  <rect x="444" y="892" width="33" height="18" rx="3" fill="#ffffff" stroke="#94a3b8" stroke-width="1" />
  <text x="460" y="905" font-family="system-ui, sans-serif" font-size="10" font-weight="bold" fill="#0f172a" text-anchor="middle">YES</text>
  <path d="M 520 1005 L 520 1035 " fill="none" stroke="#334155" stroke-width="1.8" marker-end="url(#arrow)" />
  <path d="M 520 1090 L 520 1120 " fill="none" stroke="#334155" stroke-width="1.8" marker-end="url(#arrow)" />
  <path d="M 325 1152 L 325 1210 " fill="none" stroke="#334155" stroke-width="1.8" marker-end="url(#arrow)" />
  <rect x="309" y="1163" width="33" height="18" rx="3" fill="#ffffff" stroke="#94a3b8" stroke-width="1" />
  <text x="325" y="1176" font-family="system-ui, sans-serif" font-size="10" font-weight="bold" fill="#0f172a" text-anchor="middle">YES</text>
  <path d="M 520 1185 L 520 1300 " fill="none" stroke="#334155" stroke-width="1.8" marker-end="url(#arrow)" />
  <rect x="464" y="1200" width="32" height="18" rx="3" fill="#ffffff" stroke="#94a3b8" stroke-width="1" />
  <text x="480" y="1213" font-family="system-ui, sans-serif" font-size="10" font-weight="bold" fill="#0f172a" text-anchor="middle">NO</text>
  <path d="M 325 1320 L 460 1320 " fill="none" stroke="#334155" stroke-width="1.8" marker-end="url(#arrow)" />
  <rect x="450" y="80" width="140" height="40" rx="20" fill="#0f172a" stroke="#0f172a" stroke-width="2" filter="url(#shadow)" />
  <text x="520" y="103" font-family="system-ui, -apple-system, sans-serif" font-size="11" font-weight="bold" fill="#ffffff" text-anchor="middle">START</text>
  <polygon points="442,150 610,150 598,200 430,200" fill="#f1f5f9" stroke="#0284c7" stroke-width="1.8" filter="url(#shadow)" />
  <text x="520" y="178" font-family="system-ui, -apple-system, sans-serif" font-size="11" font-weight="500" fill="#0369a1" text-anchor="middle">User Opens Search Filters Drawer</text>
  <polygon points="442,230 610,230 598,280 430,280" fill="#f1f5f9" stroke="#0284c7" stroke-width="1.8" filter="url(#shadow)" />
  <text x="520" y="252" font-family="system-ui, -apple-system, sans-serif" font-size="11" font-weight="500" fill="#0369a1" text-anchor="middle">Set Monthly Budget Range</text>
  <text x="520" y="265" font-family="system-ui, -apple-system, sans-serif" font-size="11" font-weight="500" fill="#0369a1" text-anchor="middle">(Min / Max PHP)</text>
  <polygon points="432,310 620,310 608,365 420,365" fill="#f1f5f9" stroke="#0284c7" stroke-width="1.8" filter="url(#shadow)" />
  <text x="520" y="334" font-family="system-ui, -apple-system, sans-serif" font-size="11" font-weight="500" fill="#0369a1" text-anchor="middle">Select Property & Rental Type</text>
  <text x="520" y="347" font-family="system-ui, -apple-system, sans-serif" font-size="11" font-weight="500" fill="#0369a1" text-anchor="middle">(Bedspace, Room, Apartment, Condo)</text>
  <polygon points="427,395 625,395 613,450 415,450" fill="#f1f5f9" stroke="#0284c7" stroke-width="1.8" filter="url(#shadow)" />
  <text x="520" y="419" font-family="system-ui, -apple-system, sans-serif" font-size="11" font-weight="500" fill="#0369a1" text-anchor="middle">Set Preferences: Cooking, Laundry,</text>
  <text x="520" y="432" font-family="system-ui, -apple-system, sans-serif" font-size="11" font-weight="500" fill="#0369a1" text-anchor="middle">No Curfew, Visitors, Gender Policy</text>
  <polygon points="432,480 620,480 608,535 420,535" fill="#f1f5f9" stroke="#0284c7" stroke-width="1.8" filter="url(#shadow)" />
  <text x="520" y="504" font-family="system-ui, -apple-system, sans-serif" font-size="11" font-weight="500" fill="#0369a1" text-anchor="middle">Select Target Landmark &</text>
  <text x="520" y="517" font-family="system-ui, -apple-system, sans-serif" font-size="11" font-weight="500" fill="#0369a1" text-anchor="middle">Search Radius (e.g. IT Park, 2km)</text>
  <polygon points="520,565 600,597 520,630 440,597" fill="#ffffff" stroke="#0f172a" stroke-width="2" filter="url(#shadow)" />
  <text x="520" y="594" font-family="system-ui, -apple-system, sans-serif" font-size="11" font-weight="600" fill="#0f172a" text-anchor="middle">Landmark Radius</text>
  <text x="520" y="607" font-family="system-ui, -apple-system, sans-serif" font-size="11" font-weight="600" fill="#0f172a" text-anchor="middle">Search Selected?</text>
  <rect x="220" y="660" width="210" height="65" rx="6" fill="#ffffff" stroke="#334155" stroke-width="1.8" filter="url(#shadow)" />
  <text x="325" y="683" font-family="system-ui, -apple-system, sans-serif" font-size="11" font-weight="500" fill="#0f172a" text-anchor="middle">Execute PostGIS ST_DWithin(</text>
  <text x="325" y="696" font-family="system-ui, -apple-system, sans-serif" font-size="11" font-weight="500" fill="#0f172a" text-anchor="middle">coordinates, landmark_geom, radius)</text>
  <text x="325" y="709" font-family="system-ui, -apple-system, sans-serif" font-size="11" font-weight="500" fill="#0f172a" text-anchor="middle">+ SQL Attribute Filter Clauses</text>
  <rect x="610" y="660" width="210" height="65" rx="6" fill="#ffffff" stroke="#334155" stroke-width="1.8" filter="url(#shadow)" />
  <text x="715" y="683" font-family="system-ui, -apple-system, sans-serif" font-size="11" font-weight="500" fill="#0f172a" text-anchor="middle">Execute Standard SQL Filter:</text>
  <text x="715" y="696" font-family="system-ui, -apple-system, sans-serif" font-size="11" font-weight="500" fill="#0f172a" text-anchor="middle">rental_units.monthly_rent BETWEEN...</text>
  <text x="715" y="709" font-family="system-ui, -apple-system, sans-serif" font-size="11" font-weight="500" fill="#0f172a" text-anchor="middle">AND rules MATCH...</text>
  <g filter="url(#shadow)">
    <rect x="450" y="760" width="140" height="55" fill="#f8fafc" stroke="#475569" stroke-width="1.8" />
    <ellipse cx="520" cy="760" rx="70" ry="10" fill="#e2e8f0" stroke="#475569" stroke-width="1.8" />
    <ellipse cx="520" cy="815" rx="70" ry="10" fill="#f8fafc" stroke="#475569" stroke-width="1.8" />
  </g>
  <text x="520" y="778" font-family="system-ui, -apple-system, sans-serif" font-size="11" font-weight="600" fill="#1e293b" text-anchor="middle">properties,</text>
  <text x="520" y="791" font-family="system-ui, -apple-system, sans-serif" font-size="11" font-weight="600" fill="#1e293b" text-anchor="middle">rental_units,</text>
  <text x="520" y="804" font-family="system-ui, -apple-system, sans-serif" font-size="11" font-weight="600" fill="#1e293b" text-anchor="middle">amenities</text>
  <polygon points="520,855 600,887 520,920 440,887" fill="#ffffff" stroke="#0f172a" stroke-width="2" filter="url(#shadow)" />
  <text x="520" y="884" font-family="system-ui, -apple-system, sans-serif" font-size="11" font-weight="600" fill="#0f172a" text-anchor="middle">Matching Listings</text>
  <text x="520" y="897" font-family="system-ui, -apple-system, sans-serif" font-size="11" font-weight="600" fill="#0f172a" text-anchor="middle">Found?</text>
  <polygon points="692,865 860,865 848,910 680,910" fill="#f1f5f9" stroke="#0284c7" stroke-width="1.8" filter="url(#shadow)" />
  <text x="770" y="884" font-family="system-ui, -apple-system, sans-serif" font-size="11" font-weight="500" fill="#0369a1" text-anchor="middle">Display "No Matches Found"</text>
  <text x="770" y="897" font-family="system-ui, -apple-system, sans-serif" font-size="11" font-weight="500" fill="#0369a1" text-anchor="middle">with Adjustment Suggestions</text>
  <rect x="420" y="950" width="200" height="55" rx="6" fill="#ffffff" stroke="#334155" stroke-width="1.8" filter="url(#shadow)" />
  <text x="520" y="974" font-family="system-ui, -apple-system, sans-serif" font-size="11" font-weight="500" fill="#0f172a" text-anchor="middle">Render Filtered Cards Grid</text>
  <text x="520" y="987" font-family="system-ui, -apple-system, sans-serif" font-size="11" font-weight="500" fill="#0f172a" text-anchor="middle">(Sorted by Distance / Rent)</text>
  <rect x="420" y="1035" width="200" height="55" rx="6" fill="#ffffff" stroke="#334155" stroke-width="1.8" filter="url(#shadow)" />
  <text x="520" y="1059" font-family="system-ui, -apple-system, sans-serif" font-size="11" font-weight="500" fill="#0f172a" text-anchor="middle">Synchronize Active Pins on Map</text>
  <text x="520" y="1072" font-family="system-ui, -apple-system, sans-serif" font-size="11" font-weight="500" fill="#0f172a" text-anchor="middle">(Highlight Matched Locations)</text>
  <polygon points="520,1120 600,1152 520,1185 440,1152" fill="#ffffff" stroke="#0f172a" stroke-width="2" filter="url(#shadow)" />
  <text x="520" y="1149" font-family="system-ui, -apple-system, sans-serif" font-size="11" font-weight="600" fill="#0f172a" text-anchor="middle">User Clicks "Save Favorite"</text>
  <text x="520" y="1162" font-family="system-ui, -apple-system, sans-serif" font-size="11" font-weight="600" fill="#0f172a" text-anchor="middle">Bookmark Icon?</text>
  <rect x="230" y="1210" width="190" height="50" rx="6" fill="#ffffff" stroke="#334155" stroke-width="1.8" filter="url(#shadow)" />
  <text x="325" y="1232" font-family="system-ui, -apple-system, sans-serif" font-size="11" font-weight="500" fill="#0f172a" text-anchor="middle">Insert into saved_listings</text>
  <text x="325" y="1245" font-family="system-ui, -apple-system, sans-serif" font-size="11" font-weight="500" fill="#0f172a" text-anchor="middle">(renter_id, property_id)</text>
  <rect x="460" y="1300" width="120" height="40" rx="20" fill="#0f172a" stroke="#0f172a" stroke-width="2" filter="url(#shadow)" />
  <text x="520" y="1323" font-family="system-ui, -apple-system, sans-serif" font-size="11" font-weight="bold" fill="#ffffff" text-anchor="middle">END</text>
</svg>