<svg xmlns="http://www.w3.org/2000/svg" viewBox="0 0 1200 1120" width="1200" height="1120" style="background:#FFFFFF; font-family:Helvetica, Arial, sans-serif;">
  <defs>
    <!-- 20px Grid Pattern -->
    <pattern id="grid" width="20" height="20" patternUnits="userSpaceOnUse">
      <path d="M 20 0 L 0 0 0 20" fill="none" stroke="#E2E8F0" stroke-width="0.75"/>
    </pattern>
    <!-- Arrowhead Marker -->
    <marker id="arrow" viewBox="0 0 10 10" refX="8" refY="5" markerWidth="6" markerHeight="6" orient="auto-start-reverse">
      <path d="M 0 1.5 L 8 5 L 0 8.5 z" fill="#000000"/>
    </marker>
  </defs>

  <!-- Background with Grid -->
  <rect width="100%" height="100%" fill="url(#grid)"/>

  <!-- Title -->
  <text x="600" y="45" text-anchor="middle" font-size="15" font-weight="bold" fill="#000000">SCRUM-120: SUB-PROCESS 2.4 — BIDIRECTIONAL PIN MARKER &amp; 3-SNAP GESTURE DRAWER</text>

  <!-- 1. START -->
  <rect x="520" y="75" width="160" height="45" rx="22.5" fill="#FFFFFF" stroke="#000000" stroke-width="2"/>
  <text x="600" y="103" text-anchor="middle" font-size="14" font-weight="bold" fill="#000000">START</text>

  <!-- Line 1: START -> User Interaction -->
  <path d="M 600 120 L 600 150" fill="none" stroke="#000000" stroke-width="1.5" marker-end="url(#arrow)"/>

  <!-- 2. User Interaction (Parallelogram) -->
  <polygon points="420,150 790,150 770,205 400,205" fill="#FFFFFF" stroke="#000000" stroke-width="1.5"/>
  <text x="595" y="172" text-anchor="middle" font-size="12" fill="#000000">User Interacts with Map Canvas, Marker Pin, or Result Card</text>
  <text x="595" y="190" text-anchor="middle" font-size="11" fill="#4A5568">(Hover / Click / Drag / Touch Gestures)</text>

  <!-- Line 2: User Interaction -> Diamond 1 -->
  <path d="M 595 205 L 595 235" fill="none" stroke="#000000" stroke-width="1.5" marker-end="url(#arrow)"/>

  <!-- 3. Diamond 1: Interaction on Marker Pin? -->
  <polygon points="595,235 695,272.5 595,310 495,272.5" fill="#FFFFFF" stroke="#000000" stroke-width="1.5"/>
  <text x="595" y="268" text-anchor="middle" font-size="12" font-weight="bold" fill="#000000">Interaction on</text>
  <text x="595" y="284" text-anchor="middle" font-size="12" font-weight="bold" fill="#000000">Marker Pin?</text>

  <!-- Line Pin YES -> Left Column -->
  <path d="M 495 272.5 L 220 272.5 L 220 340" fill="none" stroke="#000000" stroke-width="1.5" marker-end="url(#arrow)"/>
  <text x="355" y="265" text-anchor="middle" font-size="11" font-weight="bold" fill="#000000">YES</text>

  <!-- Left Column Node 1: Extract listing_id from SVG Price Pill -->
  <rect x="80" y="340" width="280" height="50" fill="#FFFFFF" stroke="#000000" stroke-width="1.5"/>
  <text x="220" y="362" text-anchor="middle" font-size="11" fill="#000000">Extract listing_id from SVG Price Pill Marker</text>
  <text x="220" y="378" text-anchor="middle" font-size="10" fill="#4A5568">(Target GeoJSON feature properties)</text>

  <!-- Line Extract -> Diamond 2 -->
  <path d="M 220 390 L 220 420" fill="none" stroke="#000000" stroke-width="1.5" marker-end="url(#arrow)"/>

  <!-- Diamond 2: Center Viewport on Pin? -->
  <polygon points="220,420 320,457.5 220,495 120,457.5" fill="#FFFFFF" stroke="#000000" stroke-width="1.5"/>
  <text x="220" y="453" text-anchor="middle" font-size="12" font-weight="bold" fill="#000000">Center Viewport</text>
  <text x="220" y="469" text-anchor="middle" font-size="12" font-weight="bold" fill="#000000">on Pin?</text>

  <!-- Fly YES -> Pan Camera -->
  <path d="M 120 457.5 L 110 457.5 L 110 525" fill="none" stroke="#000000" stroke-width="1.5" marker-end="url(#arrow)"/>
  <text x="114" y="445" text-anchor="middle" font-size="11" font-weight="bold" fill="#000000">YES</text>

  <rect x="25" y="525" width="180" height="50" fill="#FFFFFF" stroke="#000000" stroke-width="1.5"/>
  <text x="115" y="546" text-anchor="middle" font-size="10.5" fill="#000000">Pan Camera to Centroid</text>
  <text x="115" y="562" text-anchor="middle" font-size="9.5" fill="#4A5568">(easeTo center &amp; offset)</text>

  <!-- Pan Camera -> Pin Sync Card -->
  <path d="M 115 575 L 115 590 L 220 590 L 220 605" fill="none" stroke="#000000" stroke-width="1.5" marker-end="url(#arrow)"/>

  <!-- Fly NO -> Pin Sync Card directly -->
  <path d="M 320 457.5 L 330 457.5 L 330 590 L 220 590" fill="none" stroke="#000000" stroke-width="1.5"/>
  <text x="326" y="445" text-anchor="middle" font-size="11" font-weight="bold" fill="#000000">NO</text>

  <rect x="80" y="605" width="280" height="50" fill="#FFFFFF" stroke="#000000" stroke-width="1.5"/>
  <text x="220" y="626" text-anchor="middle" font-size="11" fill="#000000">Invert SVG Pill &amp; Scroll Card into View</text>
  <text x="220" y="642" text-anchor="middle" font-size="10" fill="#4A5568">(scrollIntoView smooth nearest)</text>

  <!-- Line Pin NO -> Diamond 3 Card Decision -->
  <path d="M 695 272.5 L 750 272.5 L 750 325" fill="none" stroke="#000000" stroke-width="1.5" marker-end="url(#arrow)"/>
  <text x="715" y="265" text-anchor="middle" font-size="11" font-weight="bold" fill="#000000">NO</text>

  <!-- Diamond 3: Interaction on Result Card? -->
  <polygon points="750,325 850,362.5 750,400 650,362.5" fill="#FFFFFF" stroke="#000000" stroke-width="1.5"/>
  <text x="750" y="358" text-anchor="middle" font-size="12" font-weight="bold" fill="#000000">Interaction on</text>
  <text x="750" y="374" text-anchor="middle" font-size="12" font-weight="bold" fill="#000000">Result Card?</text>

  <!-- Card YES -> Card Extract -->
  <path d="M 650 362.5 L 550 362.5 L 550 435" fill="none" stroke="#000000" stroke-width="1.5" marker-end="url(#arrow)"/>
  <text x="595" y="355" text-anchor="middle" font-size="11" font-weight="bold" fill="#000000">YES</text>

  <rect x="440" y="435" width="220" height="50" fill="#FFFFFF" stroke="#000000" stroke-width="1.5"/>
  <text x="550" y="456" text-anchor="middle" font-size="11" fill="#000000">Card Hover / Click Event</text>
  <text x="550" y="472" text-anchor="middle" font-size="10" fill="#4A5568">(Extract data-listing-id)</text>

  <path d="M 550 485 L 550 525" fill="none" stroke="#000000" stroke-width="1.5" marker-end="url(#arrow)"/>

  <rect x="440" y="525" width="220" height="50" fill="#FFFFFF" stroke="#000000" stroke-width="1.5"/>
  <text x="550" y="546" text-anchor="middle" font-size="11" fill="#000000">Pulse &amp; Invert Map Pin</text>
  <text x="550" y="562" text-anchor="middle" font-size="10" fill="#4A5568">(setFeatureState hovered=true)</text>

  <!-- Card NO -> Diamond 4 Mobile Decision -->
  <path d="M 850 362.5 L 890 362.5 L 890 420" fill="none" stroke="#000000" stroke-width="1.5" marker-end="url(#arrow)"/>
  <text x="870" y="355" text-anchor="middle" font-size="11" font-weight="bold" fill="#000000">NO</text>

  <!-- Diamond 4: Mobile Viewport Active? -->
  <polygon points="890,420 990,457.5 890,495 790,457.5" fill="#FFFFFF" stroke="#000000" stroke-width="1.5"/>
  <text x="890" y="453" text-anchor="middle" font-size="12" font-weight="bold" fill="#000000">Mobile Viewport</text>
  <text x="890" y="469" text-anchor="middle" font-size="12" font-weight="bold" fill="#000000">Active?</text>

  <!-- Mobile YES -> Mobile Snap -->
  <path d="M 790 457.5 L 775 457.5 L 775 525" fill="none" stroke="#000000" stroke-width="1.5" marker-end="url(#arrow)"/>
  <text x="782" y="445" text-anchor="middle" font-size="11" font-weight="bold" fill="#000000">YES</text>

  <rect x="690" y="525" width="170" height="50" fill="#FFFFFF" stroke="#000000" stroke-width="1.5"/>
  <text x="775" y="546" text-anchor="middle" font-size="10" fill="#000000">Execute 3-Snap Gesture</text>
  <text x="775" y="562" text-anchor="middle" font-size="9" fill="#4A5568">(Peek 88px, Mid 48dvh, Full)</text>

  <!-- Mobile NO -> Desktop Drawer -->
  <path d="M 990 457.5 L 1005 457.5 L 1005 525" fill="none" stroke="#000000" stroke-width="1.5" marker-end="url(#arrow)"/>
  <text x="998" y="445" text-anchor="middle" font-size="11" font-weight="bold" fill="#000000">NO</text>

  <rect x="920" y="525" width="170" height="50" fill="#FFFFFF" stroke="#000000" stroke-width="1.5"/>
  <text x="1005" y="546" text-anchor="middle" font-size="10" fill="#000000">Toggle Desktop Sidebar</text>
  <text x="1005" y="562" text-anchor="middle" font-size="9" fill="#4A5568">(Expand / collapse 408px)</text>

  <!-- Convergence to Collector Bus at y=680 -->
  <!-- Left Column -> Bus -->
  <path d="M 220 655 L 220 680 L 595 680" fill="none" stroke="#000000" stroke-width="1.5"/>
  <!-- Middle Column -> Bus -->
  <path d="M 550 575 L 550 680" fill="none" stroke="#000000" stroke-width="1.5"/>
  <!-- Right Mobile -> Bus -->
  <path d="M 775 575 L 775 680" fill="none" stroke="#000000" stroke-width="1.5"/>
  <!-- Right Desktop -> Bus -->
  <path d="M 1005 575 L 1005 680 L 595 680" fill="none" stroke="#000000" stroke-width="1.5"/>

  <!-- Collector Bus drops into Diamond 5 -->
  <path d="M 595 680 L 595 700" fill="none" stroke="#000000" stroke-width="1.5" marker-end="url(#arrow)"/>

  <!-- Diamond 5: High-Intent Action Triggered? -->
  <polygon points="595,700 695,737.5 595,775 495,737.5" fill="#FFFFFF" stroke="#000000" stroke-width="1.5"/>
  <text x="595" y="733" text-anchor="middle" font-size="12" font-weight="bold" fill="#000000">High-Intent Action</text>
  <text x="595" y="749" text-anchor="middle" font-size="12" font-weight="bold" fill="#000000">Triggered?</text>

  <!-- Intent YES -> Connector G -->
  <path d="M 495 737.5 L 220 737.5 L 220 805" fill="none" stroke="#000000" stroke-width="1.5" marker-end="url(#arrow)"/>
  <text x="350" y="730" text-anchor="middle" font-size="11" font-weight="bold" fill="#000000">YES</text>

  <!-- Connector (G) Circle -->
  <circle cx="220" cy="825" r="20" fill="#FFFFFF" stroke="#000000" stroke-width="2"/>
  <text x="220" y="831" text-anchor="middle" font-size="14" font-weight="bold" fill="#000000">G</text>
  <text x="220" y="865" text-anchor="middle" font-size="10" font-style="italic" fill="#000000">To High-Intent Action Sub-Process 2.5 (SCRUM-121)</text>

  <!-- Connector G down to END -->
  <path d="M 220 875 L 220 1027.5 L 520 1027.5" fill="none" stroke="#000000" stroke-width="1.5" marker-end="url(#arrow)"/>

  <!-- Intent NO -> Diamond 6 Dismiss Decision (Straight Down) -->
  <path d="M 595 775 L 595 805" fill="none" stroke="#000000" stroke-width="1.5" marker-end="url(#arrow)"/>
  <text x="610" y="793" text-anchor="start" font-size="11" font-weight="bold" fill="#000000">NO</text>

  <!-- Diamond 6: User Dismisses or Pans Map? -->
  <polygon points="595,805 695,842.5 595,880 495,842.5" fill="#FFFFFF" stroke="#000000" stroke-width="1.5"/>
  <text x="595" y="838" text-anchor="middle" font-size="12" font-weight="bold" fill="#000000">User Dismisses</text>
  <text x="595" y="854" text-anchor="middle" font-size="12" font-weight="bold" fill="#000000">or Pans Map?</text>

  <!-- Dismiss YES -> Reset Highlights (Goes Right) -->
  <path d="M 695 842.5 L 750 842.5" fill="none" stroke="#000000" stroke-width="1.5" marker-end="url(#arrow)"/>
  <text x="720" y="835" text-anchor="middle" font-size="11" font-weight="bold" fill="#000000">YES</text>

  <rect x="750" y="818" width="240" height="50" fill="#FFFFFF" stroke="#000000" stroke-width="1.5"/>
  <text x="870" y="839" text-anchor="middle" font-size="11" fill="#000000">Reset Active Highlight States</text>
  <text x="870" y="855" text-anchor="middle" font-size="10" fill="#4A5568">(Revert pin &amp; card active borders)</text>

  <!-- Loopback Bus: Reset Highlights -> User Interaction at x=1140 (Zero Collision!) -->
  <path d="M 990 842.5 L 1140 842.5 L 1140 177.5 L 780 177.5" fill="none" stroke="#000000" stroke-width="1.5" marker-end="url(#arrow)"/>

  <!-- Dismiss NO -> Retain Selection (Straight Down) -->
  <path d="M 595 880 L 595 915" fill="none" stroke="#000000" stroke-width="1.5" marker-end="url(#arrow)"/>
  <text x="610" y="900" text-anchor="start" font-size="11" font-weight="bold" fill="#000000">NO</text>

  <rect x="460" y="915" width="270" height="50" fill="#FFFFFF" stroke="#000000" stroke-width="1.5"/>
  <text x="595" y="936" text-anchor="middle" font-size="11" fill="#000000">Retain Active Selection &amp; Visible Details</text>
  <text x="595" y="952" text-anchor="middle" font-size="10" fill="#4A5568">(Keep current card &amp; pin active)</text>

  <!-- Retain Selection -> END (Straight Down) -->
  <path d="M 595 965 L 595 1005" fill="none" stroke="#000000" stroke-width="1.5" marker-end="url(#arrow)"/>

  <!-- END -->
  <rect x="515" y="1005" width="160" height="45" rx="22.5" fill="#FFFFFF" stroke="#000000" stroke-width="2"/>
  <text x="595" y="1033" text-anchor="middle" font-size="14" font-weight="bold" fill="#000000">END</text>

</svg>